<?xml version="1.0" standalone="no"?><!DOCTYPE svg PUBLIC "-//W3C//DTD SVG 1.1//EN" "http://www.w3.org/Graphics/SVG/1.1/DTD/svg11.dtd"><svg t="1506758985444" class="icon" style="" viewBox="0 0 1024 1024" version="1.1" xmlns="http://www.w3.org/2000/svg" p-id="887" xmlns:xlink="http://www.w3.org/1999/xlink" width="200" height="200"><defs><style type="text/css"></style></defs><path d="M512 512m-390 0a390 390 0 1 0 780 0 390 390 0 1 0-780 0Z" fill="#37BBEF" p-id="888"></path><path d="M645.3 225.6c53.2 0 104.5 7.6 153.1 21.8C727.2 170.3 625.2 122 512 122c-215.4 0-390 174.6-390 390 0 27 2.7 53.3 8 78.8 74.6-212.7 277.1-365.2 515.3-365.2z" fill="#3ED6FF" p-id="889"></path><path d="M632.4 141c104.4 71.7 170.2 176.7 170.2 293.6 0 216.2-225.1 391.5-502.8 391.5-6.5 0-13.1-0.1-19.5-0.3C345.1 873.7 425.2 902 512 902c215.4 0 390-174.6 390-390 0-173.4-113.1-320.3-269.6-371z" fill="#3495C6" p-id="890"></path><path d="M638.5 523.6s-14.4-8.6-23.9-11.5c-9.6-2.9-4.8-17.2-4.8-17.2s5.7 8.6 22 11.5 43.1 6.7 50.7 16.3c7.7 9.6 8.6 15.3 12.4 19.1 3.8 3.8 6.7 13.4 6.7 13.4s-15.8-2.5-19.1-9.6c-3.3-7.1-6.7-18.2-9.6-15.3-2.9 2.9-1 13.4-11.5 13.4s-13.4-9.6-21-11.5-1.9-8.6-1.9-8.6z m-43-199l26.8-4.8 13.4-14.4-3.8-13.4 5.7-21-7.7-11.5s0-22-8.6-25.8-5.7-27.7-5.7-27.7l1-4.8-9.6 8.6 5.7 24.9 8.6 24.9 1 43.1-20.1 12.3-15.3 20.1 8.6-10.5z m20.1-48.8l-5.7-7.7-6.7 1-1.9 12.4 6.7 1 7.6-6.7z m75.5 330s-1-17.2-8.6-17.2-10.5-19.1-10.5-19.1l-15.3-16.3s0 23.9 1 27.7c1 3.8-10.5 9.6-13.4 7.7-2.9-1.9-13.4-18.2-13.4-18.2s4.3-9.1-1.9-8.6c-0.6 0-1 0.1-1.2 0.2-1.5-0.2-4.1-0.6-8.3-1.1l-19.8-2.4-2.2 8.1s-11.5 9.6-18.2 12.4c-6.7 2.9-14.4 30.6-23 30.6s-21 1-21 1-15.3 25.8-10.5 35.4c4.8 9.6 6.7 19.1 5.7 30.6s1 9.6 17.2 6.7c16.3-2.9 29.7-24.9 47.8-21 18.2 3.8 23.9 22 23.9 22l15.3-13.4s-1.9 9.6-4.8 10.5 2.9 1.9 6.7 8.6c3.8 6.7 24.8 16.2 51.7-9.6 26.9-25.7 17.2-47.8 17.2-47.8l-14.4-26.8z m-420-22.9c1.9-18.2-8.6-13.4-7.7-39.2 1-25.8 36.4-86.1 33.5-86.1-2.9 0-19.1 12.4-24.9 11.5-5.7-1-30.6-57.4-30.6-66 0-8.6-6.7-41.1-6.7-41.1s7.7 22 13.4 23 7.7 24.9 12.4 36.4 20.1 30.6 29.7 29.7c9.6-1 39.2-54.5 39.2-54.5l-16.3-9.6-17.1 10.3s-4.8-11.5-10.5-18.2c-5.7-6.7-4.8-23-1-23s8.1 11.1 27.7 23.9c19.6 12.8 37.3 0 41.1 2.9 3.8 2.9 19.1 15.3 20.1 23 1 7.7 20.1 60.3 23 64.1 2.9 3.8 14.4-13.4 19.1-35.4 4.8-22 27.7-32.5 35.4-38.3 7.7-5.7 6.7 6.7 11.5 18.2s17.2 18.2 23 23c5.7 4.8 1 20.1 10.5 20.1 9.6 0 17.2-16.3 17.2-16.3l-6.7-18.2c-6.7-18.2 2.9-20.1 11.5-23.9 8.6-3.8 23.9-18.2 34.4-34.4 10.5-16.3-8.6-31.6-14.4-45.9-5.7-14.4 6.7-13.4 13.4-14.4s13.4 37.3 13.4 37.3l12.4-6.7s-2.9-12.4-8.6-23.9 7.7-11.5 23.9-28.7c16.3-17.2 7-25.4 7.7-46.9S580 216.5 580 216.5s-4.8 7.7 1-19.1c5.7-26.8 45-11.5 54.5-12.4 7.5-0.8 16.9-19.3 20.5-27.2-44.7-18.3-93.7-28.4-145-28.4-204.4 0-371.4 160.2-382.1 362 4.7 2.5 10.8 5.2 17.7 6.5 15.3 2.9 8.6 26.8 9.6 39.2 1 12.4 3.8 25.8 9.6 38.3 5.7 12.4-1.9 20.1-4.8 28.7-2.9 8.6 3.8 22 9.6 22s-10.5 29.7 7.7 60.3 45-2.9 57.4-46.9c12.5-44.2 33.5-38.4 35.4-56.6zM518 499.6l7.7 15.3 16.3 7.7s5.7-23 15.3-34.4c9.6-11.5-5.7-22-12.4-23.9L518 499.6z m159.2-262.2c0.6 1.9 1.5 2.9 1.5 2.9s-0.6-1.1-1.5-2.9zM562.3 547.1c-5-1.5-13.1-3.8-25.2-7.2-30.6-8.6-23-5.7-33.5-12.4s-1-9.6 1-18.2c1.9-8.6-9.6-36.4-9.6-36.4l-11.5-9.6-2.9 17.2-12.4 3.8 15.3 36.4s25.8 22 42.1 29.7c9.7 4.5 25.5 0.6 36.7-3.3zM285.5 649.9s15.3-27.7 18.2-41.1c2.9-13.4-1.9-34.4-1.9-34.4s-20.1 15.3-16.3 17.2c3.8 1.9-5.7 10.5-7.7 25.8-1.9 15.2 7.7 32.5 7.7 32.5zM670.6 164c-8.4 10.3-19.7 25.1-19.7 30.5 0 8.6 13.4 8.6 14.4 15.3 0.7 5.2 8.6 21.1 11.9 27.7-0.8-2.5-1.2-6.5 1.5-11.4 4.8-8.6 5.7-28.7 1-37.3-2.3-4.1 0.6-11.5 4.2-18.3-4.4-2.3-8.8-4.5-13.3-6.5z m-99.5 379.7c2.7-1.1 4.3-1.9 4.3-1.9s-2.2 0.8-4.3 1.9z m-3.4 4.7c-2.8-1.1 0.3-3.2 3.4-4.8-2.3 1-5.3 2.2-8.8 3.4 7.7 2.4 8.3 2.6 5.4 1.4z" fill="#E8EEEF" p-id="891"></path></svg>